<?xml version="1.0" encoding="utf-8"?>
<svg fill="#1C274C" width="16px" height="16px" viewBox="0 0 32 32" version="1.1" xmlns="http://www.w3.org/2000/svg">
  <title>eye-low-vision</title>
  <path d="M23.565 22.503c2.701-1.672 5.010-3.665 6.965-5.967l0.034-0.042c0.116-0.131 0.186-0.304 0.186-0.494s-0.070-0.363-0.187-0.495l0.001 0.001c-6.844-7.82-13.822-10.081-20.758-6.76l-7.277-7.276c-0.135-0.131-0.32-0.212-0.523-0.212-0.414 0-0.75 0.336-0.75 0.75 0 0.203 0.081 0.388 0.213 0.523l27.999 28.001c0.136 0.136 0.324 0.22 0.531 0.22 0.415 0 0.751-0.336 0.751-0.751 0-0.207-0.084-0.395-0.22-0.531v0zM28.996 16c-1.852 2.121-4.004 3.919-6.402 5.345l-0.121 0.067-2.636-2.635c0.569-0.767 0.911-1.731 0.912-2.776v-0c-0.003-2.622-2.128-4.747-4.75-4.75h-0c-1.045 0.002-2.009 0.344-2.789 0.921l0.013-0.009-2.29-2.29c6.027-2.647 11.95-0.64 18.062 6.127zM14.301 13.239c0.486-0.307 1.077-0.489 1.711-0.489 1.788 0 3.238 1.45 3.238 3.238 0 0.634-0.182 1.225-0.497 1.724l0.008-0.013zM2.53 9.469c-0.135-0.131-0.319-0.212-0.523-0.212-0.414 0-0.75 0.336-0.75 0.75 0 0.203 0.081 0.388 0.212 0.523l-0-0 19.999 20.002c0.136 0.136 0.324 0.22 0.531 0.22 0.415 0 0.751-0.336 0.751-0.751 0-0.207-0.084-0.395-0.22-0.531v0zM2.698 17.638c-0.136-0.136-0.323-0.22-0.53-0.22-0.414 0-0.75 0.336-0.75 0.75 0 0.207 0.084 0.395 0.22 0.531v0l11.832 11.832c0.136 0.137 0.324 0.221 0.532 0.221 0.415 0 0.751-0.336 0.751-0.751 0-0.208-0.085-0.397-0.222-0.533l-0-0z"></path>
</svg>